<svg aria-hidden="true" style="position: absolute; width: 0; height: 0; overflow: hidden;" version="1.1" xmlns="http://www.w3.org/2000/svg" xmlns:xlink="http://www.w3.org/1999/xlink">
<defs>
<symbol id="twitter" viewBox="0 0 32 32">
<path d="M24 11.206c-0.55 0.247-1.188 0.429-1.856 0.514l-0.034 0.004c0.68-0.408 1.191-1.039 1.436-1.79l0.007-0.023c-0.599 0.361-1.296 0.637-2.038 0.787l-0.042 0.007c-0.6-0.639-1.451-1.038-2.394-1.038-1.811 0-3.28 1.469-3.28 3.28 0 0 0 0.001 0 0.001v-0c0 0.26 0.022 0.51 0.076 0.748-2.734-0.138-5.139-1.439-6.748-3.414l-0.013-0.017c-0.281 0.474-0.448 1.045-0.448 1.655 0 1.132 0.573 2.13 1.444 2.721l0.012 0.007c-0.546-0.015-1.055-0.163-1.498-0.412l0.016 0.008v0.036c0.002 1.582 1.118 2.903 2.606 3.219l0.022 0.004c-0.25 0.069-0.538 0.108-0.834 0.108-0.009 0-0.018-0-0.027-0h0.001c-0.015 0-0.033 0-0.052 0-0.202 0-0.398-0.021-0.588-0.060l0.019 0.003c0.437 1.312 1.637 2.248 3.061 2.285l0.004 0c-1.107 0.872-2.522 1.399-4.060 1.399-0.003 0-0.005 0-0.008 0h0c-0.269 0-0.527-0.012-0.785-0.045 1.413 0.923 3.143 1.472 5.002 1.472 0.011 0 0.021-0 0.032-0h-0.002c6.036 0 9.336-5 9.336-9.334 0-0.145-0.005-0.285-0.012-0.424 0.649-0.468 1.195-1.033 1.629-1.679l0.015-0.024z"></path>
</symbol>
<symbol id="search" viewBox="0 0 32 32">
<path d="M22.62 13.952v0c0-4.786-3.88-8.667-8.667-8.667s-8.667 3.88-8.667 8.667v0c0 4.786 3.88 8.667 8.667 8.667s8.667-3.88 8.667-8.667zM20.968 22.853c-1.91 1.516-4.356 2.432-7.016 2.432-6.259 0-11.333-5.074-11.333-11.333s5.074-11.333 11.333-11.333c6.259 0 11.333 5.074 11.333 11.333 0 2.66-0.916 5.106-2.45 7.039l0.018-0.023 6.528 6.527-1.887 1.887-6.527-6.528z"></path>
</symbol>
<symbol id="linkedin" viewBox="0 0 32 32">
<path d="M24 16.751v5.916h-3.43v-5.52c0-1.386-0.495-2.332-1.737-2.332-0.947 0-1.511 0.638-1.76 1.254-0.090 0.22-0.113 0.528-0.113 0.837v5.76h-3.43s0.046-9.347 0-10.315h3.43v1.462l-0.023 0.033h0.023v-0.033c0.455-0.702 1.27-1.705 3.091-1.705 2.257 0 3.949 1.475 3.949 4.643zM9.941 7.378c-1.173 0-1.941 0.77-1.941 1.782 0 0.99 0.745 1.783 1.896 1.783h0.023c1.196 0 1.94-0.793 1.94-1.783-0.023-1.012-0.744-1.782-1.918-1.782zM8.204 22.667h3.429v-10.317h-3.43v10.316z"></path>
</symbol>
<symbol id="facebook" viewBox="0 0 32 32">
<path d="M17 12.833v-2c0-0.552 0.448-1 1-1v0h1v-2.5h-2c-1.657 0-3 1.343-3 3v0 2.5h-2v2.5h2v8h3v-8h2l1-2.5h-3z"></path>
</symbol>
<symbol id="bag" viewBox="0 0 32 32">
<path d="M16 5.333c2.209 0 4 1.791 4 4v0h-8c0-2.209 1.791-4 4-4v0zM9.333 9.333c0-3.682 2.985-6.667 6.667-6.667s6.667 2.985 6.667 6.667v0h4l1.861 13.961c0.030 0.212 0.047 0.457 0.047 0.705 0 2.946-2.388 5.333-5.333 5.333-0 0-0 0-0 0h-14.481c-0 0-0 0-0 0-2.946 0-5.333-2.388-5.333-5.333 0-0.249 0.017-0.493 0.050-0.733l-0.003 0.028 1.86-13.961h4zM22.667 12h-14.999l-1.553 11.648c-0.015 0.106-0.023 0.228-0.023 0.352 0 1.473 1.194 2.667 2.667 2.667 0.001 0 0.001 0 0.002 0h14.48c0 0 0 0 0.001 0 1.473 0 2.667-1.194 2.667-2.667 0-0.124-0.008-0.246-0.025-0.366l0.002 0.014-1.552-11.648h-1.665z"></path>
</symbol>
<symbol id="health" viewBox="0 0 32 32">
<path d="M26.531 5.114c-0.346 0-0.626 0.28-0.626 0.626s0.28 0.626 0.626 0.626v0c0.346 0 0.626-0.28 0.626-0.626s-0.28-0.626-0.626-0.626v0z"></path>
<path d="M29.779 4.485c-1.491-1.677-3.561-2.6-5.826-2.6-2.477 0-4.737 0.96-6.536 2.777-0.518 0.524-0.985 1.1-1.391 1.72l-0.026 0.042c-0.432-0.662-0.899-1.239-1.418-1.765l0.001 0.001c-1.799-1.815-4.059-2.775-6.536-2.775-4.741 0-8.047 3.966-8.047 8.682 0 6.37 6.75 11.733 15.591 19.394 0.109 0.095 0.252 0.153 0.409 0.153s0.3-0.058 0.41-0.154l-0.001 0.001c8.862-7.679 15.591-13.033 15.591-19.394 0-2.313-0.789-4.473-2.221-6.082zM16 28.663c-8.349-7.224-14.75-12.413-14.75-18.095 0-4.237 2.922-7.432 6.797-7.432 2.151 0 4.041 0.799 5.617 2.375 1.2 1.201 1.76 2.426 1.766 2.438 0.101 0.224 0.323 0.368 0.569 0.369h0.001c0.246 0 0.469-0.145 0.57-0.369 0.006-0.012 0.566-1.237 1.766-2.438 1.576-1.576 3.466-2.375 5.617-2.375 3.875 0 6.797 3.195 6.797 7.432 0 5.811-6.825 11.237-14.75 18.095z"></path>
<path d="M28.717 7.341c-0.109-0.193-0.313-0.321-0.546-0.321-0.345 0-0.625 0.28-0.625 0.625 0 0.101 0.024 0.196 0.066 0.28l-0.002-0.004c0.413 0.787 0.64 1.726 0.64 2.646 0 1.806-0.86 3.723-2.706 6.032-0.085 0.106-0.137 0.242-0.137 0.39 0 0.345 0.28 0.625 0.625 0.625 0.197 0 0.373-0.091 0.488-0.234l0.001-0.001c2.032-2.543 2.978-4.708 2.978-6.813 0-1.134-0.271-2.25-0.783-3.226z"></path>
</symbol>
<symbol id="like" viewBox="0 0 32 32">
<path d="M21.625 0c-0.345 0-0.625 0.28-0.625 0.625v2.875c0 0.345 0.28 0.625 0.625 0.625s0.625-0.28 0.625-0.625v0-2.875c0-0.345-0.281-0.625-0.626-0.625zM7.25 19.5c-0.345 0-0.625 0.28-0.625 0.625s0.28 0.625 0.625 0.625v0c0.345 0 0.625-0.28 0.625-0.625s-0.28-0.625-0.625-0.625v0z"></path>
<path d="M30.375 18.25c-0.002-1.38-1.12-2.498-2.5-2.5h-4.666c0.722-1.85 1.015-4.029 0.958-5.967-0.011-0.37-0.025-0.584-0.044-0.718-0.035-1.354-1.14-2.438-2.498-2.44h-0c-1.38 0.002-2.498 1.12-2.5 2.5v0.625c0 3.953-5.076 6.174-8.907 7.126-0.297-0.668-0.954-1.125-1.718-1.126h-6.25c-0.345 0-0.625 0.28-0.625 0.625v15c0 0.345 0.28 0.625 0.625 0.625h6.25c0.759-0.001 1.413-0.452 1.708-1.101l0.005-0.012c0.317 0.081 0.611 0.158 0.883 0.229 2.182 0.57 3.384 0.884 6.308 0.884h6.721c1.38-0.002 2.498-1.12 2.5-2.5v-0c0-0.514-0.156-0.992-0.423-1.39 0.982-0.352 1.673-1.275 1.673-2.36 0-0 0-0 0-0.001v0c0-0.513-0.152-0.992-0.418-1.391 0.98-0.354 1.668-1.276 1.668-2.358 0-0.518-0.158-1-0.428-1.399l0.006 0.009c0.982-0.352 1.673-1.275 1.673-2.36 0-0 0-0 0-0.001v0zM9.126 30.125c0 0.345-0.28 0.625-0.625 0.625h-5.626v-13.75h5.625c0.345 0 0.625 0.28 0.625 0.625v12.5zM27.874 19.501h-3.125c-0.345 0-0.625 0.28-0.625 0.625s0.28 0.625 0.625 0.625h1.874c0.69 0 1.25 0.56 1.25 1.25s-0.56 1.25-1.25 1.25v0h-3.125c-0.337 0.011-0.606 0.286-0.606 0.625s0.269 0.614 0.605 0.625l0.001 0h1.875c0.001 0 0.003 0 0.005 0 0.688 0 1.246 0.558 1.246 1.246 0 0.002 0 0.003 0 0.005v-0c0 0.69-0.56 1.25-1.25 1.25h-3.125c-0.345 0-0.625 0.28-0.625 0.625s0.28 0.625 0.625 0.625h1.874c0.69 0.001 1.249 0.56 1.25 1.25v0c-0.001 0.69-0.56 1.249-1.25 1.25h-6.721c-2.763 0-3.842-0.282-5.992-0.843-0.315-0.082-0.661-0.173-1.037-0.269v-11.512c4.523-1.078 10-3.707 10-8.377v-0.624c0.001-0.69 0.56-1.25 1.25-1.25h0c0.688 0 1.249 0.56 1.25 1.248v0.002c0 0.271 0.339 3.605-1.020 6.625h-2.105c-0.337 0.011-0.606 0.286-0.606 0.625s0.269 0.614 0.605 0.625l0.001 0h8.126c0.69 0 1.25 0.56 1.25 1.25s-0.56 1.25-1.25 1.25v0z"></path>
<path d="M7.25 22c-0.345 0-0.625 0.28-0.625 0.625v5c0.011 0.337 0.286 0.606 0.625 0.606s0.614-0.269 0.625-0.605l0-0.001v-5c0-0.345-0.28-0.625-0.625-0.625zM16.625 7.875h-2.5c-0.345 0-0.625 0.28-0.625 0.625s0.28 0.625 0.625 0.625v0h2.5c0.345 0 0.625-0.28 0.625-0.625s-0.28-0.625-0.625-0.625v0zM29.125 7.875h-2.5c-0.345 0-0.625 0.28-0.625 0.625s0.28 0.625 0.625 0.625v0h2.5c0.345 0 0.625-0.28 0.625-0.625s-0.28-0.625-0.625-0.625v0zM27.37 2.755c-0.113-0.113-0.269-0.183-0.442-0.183s-0.329 0.070-0.442 0.183l-1.767 1.767c-0.109 0.112-0.177 0.266-0.177 0.436 0 0.345 0.28 0.625 0.625 0.625 0.17 0 0.323-0.067 0.436-0.177l1.767-1.767c0.113-0.113 0.183-0.269 0.183-0.442s-0.070-0.329-0.183-0.442v0zM18.531 4.522l-1.767-1.767c-0.112-0.109-0.266-0.177-0.436-0.177-0.345 0-0.625 0.28-0.625 0.625 0 0.17 0.068 0.323 0.177 0.436l1.767 1.767c0.112 0.109 0.266 0.177 0.436 0.177 0.345 0 0.625-0.28 0.625-0.625 0-0.17-0.067-0.323-0.177-0.436l0 0z"></path>
</symbol>
<symbol id="cauliflower" viewBox="0 0 32 32">
<path d="M29.47 20.145c1.228-0.841 2.024-2.234 2.030-3.813v-0.001c-0.004-1.455-0.68-2.752-1.734-3.596l-0.009-0.007c0.699-1.188 1.111-2.617 1.111-4.142 0-0.005 0-0.010 0-0.016v0.001c0-4.586-3.73-8.316-8.315-8.316-1.426 0-2.814 0.362-4.047 1.050-0.748-0.804-1.812-1.305-2.992-1.306h-0c-1.226 0.003-2.325 0.544-3.075 1.399l-0.004 0.005c-1.035-0.871-2.382-1.401-3.852-1.403h-0.001c-3.306 0-5.996 2.69-5.996 5.995 0 1.86 0.851 3.525 2.185 4.625-0.009 0.113-0.014 0.245-0.014 0.378 0 2.138 1.284 3.976 3.123 4.785l0.034 0.013c-1.078 1.938-2.342 3.607-3.806 5.075l-3.022 3.022c-0.361 0.362-0.584 0.861-0.584 1.412s0.223 1.051 0.584 1.412l4.695 4.696c0.359 0.361 0.857 0.585 1.407 0.585 0.002 0 0.004 0 0.006 0h-0c0.533 0 1.034-0.208 1.411-0.585l1.675-1.675c2.441-2.431 5.599-4.145 9.129-4.796l0.107-0.016c0.149 3.175 2.778 5.712 5.989 5.712 3.306 0 5.996-2.689 5.996-5.995 0-1.753-0.743-3.371-2.030-4.499zM6.030 11.421c0.774 0.366 1.639 0.57 2.551 0.57 0.351 0 0.696-0.031 1.034-0.090l-0.28 0.769c-0.304 0.833-0.591 1.497-0.907 2.144l0.058-0.131c-1.361-0.554-2.299-1.827-2.457-3.263zM19.591 23.647c-2.122 0.351-4.026 1.010-5.765 1.936l0.101-0.049c-0.063-0.289-0.206-0.554-0.42-0.769l-0.762-0.762c-0.28-0.282-0.668-0.456-1.097-0.456-0.002 0-0.003 0-0.005 0h0c-0.416 0-0.807 0.162-1.101 0.456l-1.81 1.81c-0.109 0.112-0.177 0.266-0.177 0.436 0 0.345 0.28 0.625 0.625 0.625 0.17 0 0.323-0.067 0.436-0.177l1.81-1.81c0.055-0.056 0.132-0.091 0.217-0.091s0.162 0.035 0.217 0.090l0.762 0.762c0.12 0.12 0.12 0.314 0 0.434l-0.454 0.454c-0.029 0.029-0.054 0.060-0.077 0.093-1.008 0.688-1.89 1.42-2.697 2.226l-1.675 1.675c-0.291 0.291-0.766 0.291-1.057 0l-3.32-3.32 3.155-3.156c0.109-0.112 0.177-0.266 0.177-0.436 0-0.345-0.28-0.625-0.625-0.625-0.17 0-0.323 0.067-0.436 0.177l-3.155 3.155-0.492-0.491c-0.135-0.135-0.219-0.322-0.219-0.529s0.084-0.393 0.219-0.529v0l3.023-3.023c2.38-2.387 4.259-5.275 5.465-8.492l0.054-0.165 0.461-1.262c0.464 0.539 1.013 0.988 1.629 1.332l0.030 0.016-1.405 4.909c-0.015 0.051-0.024 0.11-0.024 0.171 0 0.345 0.28 0.625 0.625 0.625 0.172 0 0.329-0.070 0.442-0.183v0l4.329-4.329c0.456 0.469 0.964 0.88 1.519 1.23-0.098 0.409-0.155 0.878-0.155 1.361 0 0.489 0.058 0.964 0.167 1.419l-0.008-0.041-3.050 3.050c-0.113 0.113-0.183 0.269-0.183 0.442 0 0.345 0.28 0.625 0.624 0.625h3.049c0.337-0.011 0.606-0.286 0.606-0.625s-0.269-0.614-0.605-0.625l-0.001-0h-1.539l1.568-1.568c0.416 0.821 0.986 1.508 1.678 2.045l0.013 0.010c-0.325 0.562-0.566 1.216-0.685 1.912l-0.005 0.035zM13.091 16.115l0.7-2.446c0.481 0.143 0.985 0.227 1.5 0.246l-2.2 2.2zM25.407 29.389c-2.537-0.051-4.604-2.126-4.647-4.662-0.001-0.027-0.001-0.059-0.001-0.091 0-1.024 0.327-1.973 0.882-2.746l-0.010 0.014c0.056-0.078 0.098-0.167 0.115-0.262 0.006-0.034 0.010-0.073 0.010-0.113 0-0.224-0.117-0.42-0.293-0.531l-0.003-0.002c-1.358-0.846-2.249-2.331-2.249-4.024 0-0.004 0-0.007 0-0.011v0.001c0-0.493 0.076-0.981 0.226-1.45 0.020-0.059 0.032-0.127 0.032-0.198 0-0.235-0.128-0.44-0.318-0.549l-0.003-0.002c-0.884-0.496-1.626-1.141-2.215-1.909l-0.013-0.017c-0.115-0.151-0.296-0.248-0.498-0.248-0.037 0-0.073 0.003-0.109 0.009l0.004-0.001c-0.244 0.045-0.526 0.070-0.813 0.070-1.676 0-3.147-0.872-3.987-2.186l-0.011-0.019c-0.171-0.27-0.52-0.366-0.807-0.223-0.613 0.315-1.338 0.499-2.106 0.499-0.004 0-0.008 0-0.012-0h0.001c-2.617 0-4.746-2.129-4.746-4.746s2.129-4.746 4.746-4.746c1.296 0 2.546 0.538 3.44 1.478 0.041 0.042 0.086 0.083 0.125 0.127 0.736 0.828 1.186 1.924 1.189 3.125v0c0.001 0.339 0.269 0.63 0.608 0.639 0.005 0 0.011 0 0.017 0 0.345 0 0.625-0.28 0.625-0.625 0-0 0-0 0-0v0c0-1.349-0.449-2.641-1.273-3.693 0.524-0.643 1.315-1.050 2.201-1.053h0c0.931 0 1.804 0.459 2.334 1.227 0.193 0.279 0.571 0.354 0.856 0.169 1.084-0.716 2.415-1.141 3.844-1.141 0.107 0 0.214 0.002 0.319 0.007l-0.015-0.001c3.754 0.156 6.751 3.271 6.767 7.029 0 0.013 0 0.028 0 0.044 0 1.468-0.45 2.831-1.22 3.958l0.016-0.024c-0.022 0.022-0.042 0.046-0.061 0.071-1.334 1.877-3.457 3.015-5.681 3.049-0.331 0.005-0.62 0.253-0.641 0.584-0.001 0.012-0.001 0.027-0.001 0.041 0 0.345 0.28 0.625 0.625 0.625h0.007c2.451-0.028 4.796-1.19 6.374-3.134 0.741 0.62 1.21 1.544 1.213 2.577v0c-0.005 1.427-0.896 2.644-2.152 3.129l-0.023 0.008c-0.239 0.091-0.406 0.319-0.406 0.586 0 0.225 0.119 0.423 0.298 0.533l0.003 0.002c1.376 0.84 2.281 2.334 2.281 4.039 0 0.006 0 0.012-0 0.017v-0.001c0 2.649-2.182 4.798-4.843 4.745z"></path>
<path d="M22.582 3.263h-0.029c-0.337 0.010-0.606 0.286-0.606 0.625s0.269 0.614 0.605 0.625l0.001 0h0.024c0.338-0.009 0.609-0.285 0.609-0.625 0-0.338-0.268-0.613-0.603-0.625l-0.001-0zM25.266 4.007c-0.091-0.055-0.202-0.088-0.32-0.088-0.345 0-0.625 0.28-0.625 0.625 0 0.227 0.121 0.426 0.302 0.536l0.003 0.002c1.194 0.724 1.981 2.014 1.985 3.489v0.001c0 0.345 0.28 0.625 0.625 0.625s0.625-0.28 0.625-0.625v0c-0.006-1.929-1.034-3.617-2.572-4.551l-0.024-0.013zM8.233 21.437c-0.113-0.113-0.269-0.182-0.442-0.183h-0c-0.165 0-0.326 0.066-0.442 0.183s-0.183 0.277-0.183 0.442c0 0.165 0.067 0.326 0.183 0.442 0.113 0.112 0.27 0.182 0.442 0.182s0.329-0.069 0.442-0.182l-0 0c0.113-0.113 0.182-0.269 0.183-0.442v-0c-0-0.173-0.070-0.329-0.183-0.442l0 0z"></path>
</symbol>
<symbol id="clock" viewBox="0 0 32 32">
<path d="M31.938 17.478c-0.312-3.017-1.642-5.676-3.636-7.673l0 0c-1.643-1.647-3.742-2.84-6.090-3.374l-0.084-0.016v-1.589c0.932-0.239 1.611-1.071 1.613-2.062v-0c-0.001-1.173-0.952-2.124-2.126-2.125h-4.5c-1.174 0.001-2.125 0.952-2.126 2.126v0c0.002 0.991 0.68 1.823 1.598 2.059l0.015 0.003v1.593c-2.425 0.552-4.516 1.743-6.155 3.385l-0 0c-0.37 0.37-0.718 0.763-1.040 1.176l-0.021 0.028c-0.014-0.001-0.030-0.002-0.047-0.002h-4.454c-0.345 0-0.625 0.28-0.625 0.625s0.28 0.625 0.625 0.625h3.651c-0.418 0.687-0.793 1.481-1.083 2.314l-0.027 0.088h-6.802c-0.337 0.011-0.606 0.286-0.606 0.625s0.269 0.614 0.605 0.625l0.001 0h6.449c-0.169 0.71-0.281 1.535-0.31 2.381l-0.001 0.021h-2.764c-0.345 0-0.625 0.28-0.625 0.625s0.28 0.625 0.625 0.625h2.784c0.053 0.809 0.183 1.614 0.39 2.402h-4.049c-0.337 0.011-0.606 0.286-0.606 0.625s0.269 0.614 0.605 0.625l0.001 0h4.448c0.667 1.736 1.644 3.218 2.875 4.445l0 0c1.998 1.995 4.659 3.326 7.625 3.632l0.054 0.005c0.373 0.039 0.806 0.061 1.244 0.061 2.56 0 4.942-0.76 6.933-2.066l-0.048 0.030c0.166-0.114 0.274-0.303 0.274-0.517 0-0.345-0.28-0.625-0.625-0.625-0.123 0-0.237 0.035-0.334 0.096l0.003-0.002c-4.472 2.913-10.462 2.283-14.242-1.497-4.435-4.435-4.435-11.651 0-16.087s11.651-4.435 16.087 0c3.775 3.775 4.408 9.759 1.505 14.23-0.069 0.099-0.111 0.222-0.111 0.355 0 0.345 0.28 0.625 0.625 0.625 0.225 0 0.423-0.119 0.533-0.298l0.002-0.003c1.271-1.941 2.027-4.319 2.027-6.873 0-0.44-0.022-0.874-0.066-1.303l0.004 0.054zM16.241 2.766c0-0.482 0.392-0.874 0.874-0.874h4.501c0.482 0 0.875 0.392 0.875 0.874s-0.393 0.875-0.875 0.875h-4.5c-0.484 0-0.876-0.392-0.876-0.875v-0zM17.853 6.206v-1.314h3.026v1.312c-0.451-0.057-0.974-0.089-1.503-0.089-0.537 0-1.065 0.033-1.584 0.098l0.062-0.006z"></path>
<path d="M27.861 26.594c-0.345 0.001-0.624 0.28-0.625 0.625v0c0.001 0.345 0.28 0.624 0.625 0.625h0c0.165 0 0.325-0.066 0.442-0.183 0.117-0.116 0.183-0.278 0.183-0.442s-0.066-0.326-0.183-0.442c-0.113-0.112-0.269-0.182-0.442-0.183h-0zM19.375 9.038c-5.346 0-9.696 4.349-9.696 9.695s4.35 9.696 9.696 9.696 9.695-4.35 9.695-9.696-4.349-9.695-9.695-9.695zM19.375 27.179c-4.657 0-8.446-3.789-8.446-8.446s3.789-8.446 8.446-8.446c4.657 0 8.446 3.789 8.446 8.446s-3.789 8.446-8.446 8.446z"></path>
<path d="M23.329 13.897l-3.096 3.095c-0.25-0.127-0.545-0.201-0.858-0.201s-0.608 0.074-0.869 0.206l0.011-0.005-1.386-1.386c-0.112-0.109-0.266-0.177-0.436-0.177-0.345 0-0.625 0.28-0.625 0.625 0 0.17 0.067 0.323 0.177 0.436l1.386 1.386c-0.129 0.259-0.2 0.55-0.2 0.858 0.001 1.072 0.87 1.941 1.942 1.942h0c1.072-0.001 1.941-0.87 1.942-1.942v-0c0-0.307-0.073-0.599-0.2-0.858l3.095-3.095c0.106-0.112 0.171-0.263 0.171-0.429 0-0.345-0.28-0.625-0.625-0.625-0.166 0-0.317 0.065-0.429 0.171l0-0zM19.375 19.426c-0.382-0.001-0.691-0.311-0.691-0.693v-0c0-0.382 0.31-0.691 0.691-0.691 0.382 0 0.693 0.31 0.693 0.691s-0.31 0.693-0.692 0.693zM26.058 18.117h-0.579c-0.337 0.011-0.606 0.286-0.606 0.625s0.269 0.614 0.605 0.625l0.001 0h0.578c0.337-0.011 0.606-0.286 0.606-0.625s-0.269-0.614-0.605-0.625l-0.001-0zM13.272 18.101h-0.579c-0.345 0-0.625 0.28-0.625 0.625s0.28 0.625 0.625 0.625h0.579c0.345 0 0.625-0.28 0.625-0.625s-0.28-0.625-0.625-0.625v0zM19.383 13.255c0.345 0 0.625-0.28 0.625-0.625v-0.579c0-0.345-0.28-0.625-0.625-0.625s-0.625 0.28-0.625 0.625v0 0.579c0 0.345 0.28 0.625 0.625 0.625zM19.368 24.213c-0.345 0-0.625 0.28-0.625 0.625v0.579c0.011 0.337 0.286 0.606 0.625 0.606s0.614-0.269 0.625-0.605l0-0.001v-0.579c0-0.345-0.28-0.625-0.625-0.625zM0.625 21.966c-0.165 0-0.326 0.067-0.442 0.183s-0.183 0.278-0.183 0.442c0 0.165 0.067 0.326 0.183 0.442s0.278 0.183 0.442 0.183c0.164 0 0.326-0.067 0.442-0.183s0.183-0.278 0.183-0.442-0.067-0.326-0.183-0.442c-0.113-0.113-0.269-0.182-0.442-0.183h-0z"></path>
</symbol>
<symbol id="business-and-finance" viewBox="0 0 32 32">
<path d="M5.317 28.433c-0.113-0.113-0.269-0.182-0.442-0.183h-0c-0.165 0-0.326 0.066-0.442 0.183s-0.183 0.278-0.183 0.442c0 0.165 0.067 0.326 0.183 0.442s0.278 0.183 0.442 0.183c0.164 0 0.326-0.067 0.442-0.183s0.183-0.278 0.183-0.442c0-0.164-0.067-0.326-0.183-0.442zM29.345 11.434c-0.113-0.113-0.269-0.182-0.442-0.183h-0c-0.165 0-0.326 0.066-0.442 0.183s-0.183 0.277-0.183 0.442 0.067 0.326 0.183 0.442c0.117 0.117 0.278 0.183 0.442 0.183 0.344-0.002 0.623-0.28 0.625-0.624v-0c0-0.165-0.066-0.326-0.183-0.442z"></path>
<path d="M31.817 0.183c-0.113-0.113-0.269-0.183-0.442-0.183-0 0-0 0-0 0l-15.374 0.001c-0.345 0-0.625 0.28-0.625 0.625v1.787l-5.923 1.587c-0.334 0.089-0.531 0.432-0.442 0.766l3.070 11.458-2.656 2.657c-0.342-0.497-0.907-0.818-1.547-0.818h-6c-1.035 0.001-1.874 0.839-1.876 1.874v10.189c0.002 1.034 0.84 1.873 1.874 1.874h6c0.875-0.001 1.61-0.601 1.817-1.411l0.003-0.013 0.743 0.648c0.55 0.482 1.276 0.776 2.070 0.776 0.001 0 0.001 0 0.002 0h18.867c0.345 0 0.625-0.28 0.625-0.625v-30.75c0-0.166-0.066-0.325-0.183-0.442zM8.5 30.126c0 0.345-0.28 0.625-0.625 0.625h-6c-0.344 0-0.625-0.281-0.625-0.625v-10.189c0-0.345 0.28-0.625 0.625-0.625h2.375v7.2c0.011 0.337 0.286 0.606 0.625 0.606s0.614-0.269 0.625-0.605l0-0.001v-7.2h2.375c0.345 0 0.625 0.281 0.625 0.625v10.189zM10.378 5.046l4.997-1.339v2.315l-0.419 0.113c-0.269 0.074-0.463 0.316-0.463 0.603 0 0.058 0.008 0.114 0.023 0.167l-0.001-0.004c0.036 0.13 0.057 0.28 0.057 0.434 0 0.775-0.523 1.427-1.235 1.624l-0.012 0.003c-0.269 0.074-0.463 0.316-0.463 0.603 0 0.058 0.008 0.114 0.023 0.168l-0.001-0.004 2.437 9.021h-1.254l-0.647-2.529c-0.022-0.084-0.058-0.157-0.106-0.22l0.001 0.002-2.935-10.955zM15.375 8.889v5.274l-1.14-4.221c0.473-0.248 0.859-0.606 1.133-1.041l0.007-0.012zM24.354 30.75h-11.846c-0.459 0-0.903-0.166-1.249-0.469l-1.509-1.316v-8.644l2.729-2.729 0.495 1.936c0.071 0.277 0.32 0.47 0.606 0.47l12.287 0.001c0.482 0 0.875 0.393 0.875 0.875s-0.393 0.874-0.874 0.874h-6.297c-0.345 0-0.625 0.28-0.625 0.625s0.28 0.625 0.625 0.625h8.253c0.467 0.021 0.837 0.405 0.837 0.875s-0.37 0.854-0.835 0.875l-0.002 0h-8.253c-0.337 0.011-0.606 0.286-0.606 0.625s0.269 0.614 0.605 0.625l0.001 0h6.915c0.483 0 0.875 0.393 0.875 0.875s-0.393 0.874-0.875 0.874h-6.914c-0.345 0-0.625 0.28-0.625 0.625s0.28 0.625 0.625 0.625h4.783c0.483 0 0.875 0.393 0.875 0.875s-0.393 0.874-0.875 0.874zM30.75 30.75h-4.46c0.12-0.257 0.19-0.558 0.19-0.875s-0.070-0.618-0.195-0.888l0.005 0.013h0.196c1.173-0.001 2.124-0.952 2.125-2.125v-0c0-0.342-0.082-0.665-0.226-0.951 0.907-0.256 1.561-1.076 1.563-2.048v-0c0-0.474-0.156-0.913-0.419-1.266v-7.921c0-0.345-0.28-0.625-0.625-0.625s-0.625 0.28-0.625 0.625v0 7.112c-0.137-0.031-0.294-0.050-0.455-0.050h-0.021c0.121-0.267 0.19-0.563 0.19-0.875-0.001-1.173-0.952-2.124-2.126-2.125h-1.004c1.076-0.47 1.814-1.524 1.815-2.75v-0c-0.002-1.651-1.34-2.989-2.991-2.991h-0c-1.651 0.002-2.99 1.34-2.991 2.991v0c0.001 1.227 0.74 2.281 1.797 2.743l0.019 0.008h-3.417v-11.884c1.121-0.253 1.988-1.12 2.237-2.221l0.004-0.020h4.701c0.253 1.121 1.12 1.987 2.221 2.237l0.020 0.004v1.943c0 0.345 0.28 0.625 0.625 0.625s0.625-0.28 0.625-0.625v0-2.501c0-0.345-0.28-0.625-0.625-0.625-0.929-0.001-1.682-0.754-1.683-1.683v-0c0-0.345-0.28-0.625-0.625-0.625h-5.817c-0.346 0-0.625 0.28-0.625 0.625-0.001 0.929-0.754 1.682-1.683 1.683h-0c-0.345 0-0.625 0.28-0.625 0.625v12.442h-1.221v-17.499l14.125-0.001v29.501zM23.687 17.741c-0.961-0.001-1.74-0.78-1.741-1.741v-0c0.001-0.961 0.78-1.74 1.741-1.741h0c0.961 0.001 1.74 0.78 1.741 1.741v0c-0.001 0.961-0.78 1.74-1.741 1.741h-0z"></path>
</symbol>
</defs>
</svg>
