<svg aria-hidden="true" style="position:absolute;width:0;height:0" xmlns="http://www.w3.org/2000/svg" overflow="hidden"><defs><symbol id="twitter" viewBox="0 0 32 32"><path d="M24 11.206a6.62 6.62 0 01-1.856.514l-.034.004a3.273 3.273 0 001.436-1.79l.007-.023a6.45 6.45 0 01-2.038.787l-.042.007a3.28 3.28 0 00-5.674 2.242v.001c0 .26.022.51.076.748a9.28 9.28 0 01-6.748-3.414l-.013-.017a3.283 3.283 0 00.996 4.376l.012.007a3.227 3.227 0 01-1.498-.412l.016.008v.036a3.296 3.296 0 002.606 3.219l.022.004c-.25.069-.538.108-.834.108h-.027.001-.052c-.202 0-.398-.021-.588-.06l.019.003a3.32 3.32 0 003.061 2.285h.004a6.549 6.549 0 01-4.06 1.399h-.008c-.269 0-.527-.012-.785-.045a9.145 9.145 0 005.002 1.472h.032-.002c6.036 0 9.336-5 9.336-9.334 0-.145-.005-.285-.012-.424a6.608 6.608 0 001.629-1.679l.015-.024z"/></symbol><symbol id="search" viewBox="0 0 32 32"><path d="M22.62 13.952a8.667 8.667 0 00-17.334 0 8.667 8.667 0 0017.334 0zm-1.652 8.901a11.263 11.263 0 01-7.016 2.432c-6.259 0-11.333-5.074-11.333-11.333S7.693 2.619 13.952 2.619s11.333 5.074 11.333 11.333c0 2.66-.916 5.106-2.45 7.039l.018-.023 6.528 6.527-1.887 1.887-6.527-6.528z"/></symbol><symbol id="linkedin" viewBox="0 0 32 32"><path d="M24 16.751v5.916h-3.43v-5.52c0-1.386-.495-2.332-1.737-2.332-.947 0-1.511.638-1.76 1.254-.09.22-.113.528-.113.837v5.76h-3.43s.046-9.347 0-10.315h3.43v1.462l-.023.033h.023v-.033c.455-.702 1.27-1.705 3.091-1.705 2.257 0 3.949 1.475 3.949 4.643zM9.941 7.378C8.768 7.378 8 8.148 8 9.16c0 .99.745 1.783 1.896 1.783h.023c1.196 0 1.94-.793 1.94-1.783-.023-1.012-.744-1.782-1.918-1.782zM8.204 22.667h3.429V12.35h-3.43v10.316z"/></symbol><symbol id="facebook" viewBox="0 0 32 32"><path d="M17 12.833v-2a1 1 0 011-1h1v-2.5h-2a3 3 0 00-3 3v2.5h-2v2.5h2v8h3v-8h2l1-2.5h-3z"/></symbol><symbol id="bag" viewBox="0 0 32 32"><path d="M16 5.333a4 4 0 014 4h-8a4 4 0 014-4zm-6.667 4a6.667 6.667 0 0113.334 0h4l1.861 13.961a5.333 5.333 0 01-5.286 6.038H8.761a5.333 5.333 0 01-5.283-6.066l-.003.028 1.86-13.961h4zM22.667 12H7.668L6.115 23.648a2.667 2.667 0 002.644 3.019h14.483a2.667 2.667 0 002.642-3.033l.002.014L24.334 12h-1.665z"/></symbol><symbol id="health" viewBox="0 0 32 32"><path d="M26.531 5.114a.626.626 0 100 1.252.626.626 0 100-1.252z"/><path d="M29.779 4.485c-1.491-1.677-3.561-2.6-5.826-2.6-2.477 0-4.737.96-6.536 2.777a11.09 11.09 0 00-1.391 1.72L16 6.424a11.193 11.193 0 00-1.418-1.765l.001.001c-1.799-1.815-4.059-2.775-6.536-2.775C3.306 1.885 0 5.851 0 10.567c0 6.37 6.75 11.733 15.591 19.394a.62.62 0 00.819-.001l-.001.001C25.271 22.282 32 16.928 32 10.567c0-2.313-.789-4.473-2.221-6.082zM16 28.663C7.651 21.439 1.25 16.25 1.25 10.568c0-4.237 2.922-7.432 6.797-7.432 2.151 0 4.041.799 5.617 2.375 1.2 1.201 1.76 2.426 1.766 2.438a.626.626 0 00.569.369H16a.626.626 0 00.57-.369c.006-.012.566-1.237 1.766-2.438 1.576-1.576 3.466-2.375 5.617-2.375 3.875 0 6.797 3.195 6.797 7.432 0 5.811-6.825 11.237-14.75 18.095z"/><path d="M28.717 7.341a.626.626 0 00-1.105.584l-.002-.004a5.79 5.79 0 01.64 2.646c0 1.806-.86 3.723-2.706 6.032a.625.625 0 00.976.781l.001-.001c2.032-2.543 2.978-4.708 2.978-6.813 0-1.134-.271-2.25-.783-3.226z"/></symbol><symbol id="like" viewBox="0 0 32 32"><path d="M21.625 0A.625.625 0 0021 .625V3.5a.625.625 0 001.25 0V.625A.626.626 0 0021.624 0zM7.25 19.5a.625.625 0 000 1.25.625.625 0 000-1.25z"/><path d="M30.375 18.25a2.503 2.503 0 00-2.5-2.5h-4.666c.722-1.85 1.015-4.029.958-5.967a7.236 7.236 0 00-.044-.718 2.503 2.503 0 00-2.498-2.44 2.503 2.503 0 00-2.5 2.5v.625c0 3.953-5.076 6.174-8.907 7.126A1.88 1.88 0 008.5 15.75H2.25a.625.625 0 00-.625.625v15c0 .345.28.625.625.625H8.5a1.878 1.878 0 001.708-1.101l.005-.012c.317.081.611.158.883.229 2.182.57 3.384.884 6.308.884h6.721a2.503 2.503 0 002.5-2.5c0-.514-.156-.992-.423-1.39a2.507 2.507 0 001.673-2.36v-.001c0-.513-.152-.992-.418-1.391A2.507 2.507 0 0029.125 22c0-.518-.158-1-.428-1.399l.006.009a2.507 2.507 0 001.673-2.36v-.001zM9.126 30.125c0 .345-.28.625-.625.625H2.875V17H8.5c.345 0 .625.28.625.625v12.5zm18.748-10.624h-3.125a.625.625 0 000 1.25h1.874a1.25 1.25 0 010 2.5h-3.125a.625.625 0 00-.001 1.25H25.378c.688 0 1.246.558 1.246 1.246v.005c0 .69-.56 1.25-1.25 1.25h-3.125a.625.625 0 000 1.25h1.874c.69.001 1.249.56 1.25 1.25a1.252 1.252 0 01-1.25 1.25h-6.721c-2.763 0-3.842-.282-5.992-.843-.315-.082-.661-.173-1.037-.269V18.128c4.523-1.078 10-3.707 10-8.377v-.624c.001-.69.56-1.25 1.25-1.25.688 0 1.249.56 1.25 1.248v.002c0 .271.339 3.605-1.02 6.625h-2.105a.625.625 0 00-.001 1.25H27.874a1.25 1.25 0 010 2.5z"/><path d="M7.25 22a.625.625 0 00-.625.625v5a.625.625 0 001.25.001v-5.001A.625.625 0 007.25 22zm9.375-14.125h-2.5a.625.625 0 000 1.25h2.5a.625.625 0 000-1.25zm12.5 0h-2.5a.625.625 0 000 1.25h2.5a.625.625 0 000-1.25zm-1.755-5.12a.623.623 0 00-.884 0l-1.767 1.767a.624.624 0 00.448 1.061c.17 0 .323-.067.436-.177l1.767-1.767a.623.623 0 000-.884zm-8.839 1.767l-1.767-1.767a.624.624 0 00-1.061.448c0 .17.068.323.177.436l1.767 1.767a.624.624 0 001.061-.448.621.621 0 00-.177-.436z"/></symbol><symbol id="cauliflower" viewBox="0 0 32 32"><path d="M29.47 20.145a4.63 4.63 0 002.03-3.813v-.001a4.612 4.612 0 00-1.734-3.596l-.009-.007a8.178 8.178 0 001.111-4.142V8.57v.001c0-4.586-3.73-8.316-8.315-8.316a8.29 8.29 0 00-4.047 1.05 4.079 4.079 0 00-2.992-1.306 4.093 4.093 0 00-3.075 1.399l-.004.005A5.982 5.982 0 008.583 0h-.001a6.003 6.003 0 00-5.996 5.995c0 1.86.851 3.525 2.185 4.625a5.226 5.226 0 003.109 5.163l.034.013a22.809 22.809 0 01-3.806 5.075l-3.022 3.022c-.361.362-.584.861-.584 1.412s.223 1.051.584 1.412l4.695 4.696c.359.361.857.585 1.407.585h.006c.533 0 1.034-.208 1.411-.585l1.675-1.675a17.412 17.412 0 019.129-4.796l.107-.016a6.003 6.003 0 005.989 5.712 6.002 6.002 0 005.996-5.995 5.946 5.946 0 00-2.03-4.499zM6.03 11.421a5.952 5.952 0 003.585.48l-.28.769a21.583 21.583 0 01-.907 2.144l.058-.131a4.008 4.008 0 01-2.457-3.263zm13.561 12.226a18.598 18.598 0 00-5.765 1.936l.101-.049a1.555 1.555 0 00-.42-.769l-.762-.762a1.54 1.54 0 00-1.097-.456h-.005c-.416 0-.807.162-1.101.456l-1.81 1.81a.624.624 0 00.448 1.061c.17 0 .323-.067.436-.177l1.81-1.81a.304.304 0 01.434-.001l.762.762c.12.12.12.314 0 .434l-.454.454a.679.679 0 00-.077.093 18.653 18.653 0 00-2.697 2.226L7.719 30.53a.749.749 0 01-1.057 0l-3.32-3.32 3.155-3.156a.624.624 0 00-.448-1.061.621.621 0 00-.436.177l-3.155 3.155-.492-.491a.746.746 0 010-1.058l3.023-3.023a23.934 23.934 0 005.465-8.492l.054-.165.461-1.262a6.018 6.018 0 001.629 1.332l.03.016-1.405 4.909a.625.625 0 001.043.613l4.329-4.329c.456.469.964.88 1.519 1.23a6.084 6.084 0 00.012 2.78l-.008-.041-3.05 3.05a.625.625 0 00.441 1.067h3.049a.625.625 0 00.001-1.25H17.019l1.568-1.568a6 6 0 001.678 2.045l.013.01a5.792 5.792 0 00-.685 1.912l-.005.035zm-6.5-7.532l.7-2.446c.481.143.985.227 1.5.246l-2.2 2.2zm12.316 13.274c-2.537-.051-4.604-2.126-4.647-4.662l-.001-.091c0-1.024.327-1.973.882-2.746l-.01.014a.65.65 0 00.125-.375.626.626 0 00-.293-.531l-.003-.002a4.73 4.73 0 01-2.249-4.024v-.011.001c0-.493.076-.981.226-1.45a.632.632 0 00-.286-.747l-.003-.002a7.224 7.224 0 01-2.215-1.909l-.013-.017a.626.626 0 00-.607-.239l.004-.001a4.725 4.725 0 01-4.8-2.116l-.011-.019a.625.625 0 00-.807-.223 4.623 4.623 0 01-2.106.499h-.012.001c-2.617 0-4.746-2.129-4.746-4.746s2.129-4.746 4.746-4.746c1.296 0 2.546.538 3.44 1.478.041.042.086.083.125.127a4.709 4.709 0 011.189 3.125c.001.339.269.63.608.639h.017c.345 0 .625-.28.625-.625a5.972 5.972 0 00-1.273-3.693 2.842 2.842 0 012.201-1.053c.931 0 1.804.459 2.334 1.227a.625.625 0 00.856.169 6.974 6.974 0 014.163-1.134l-.015-.001c3.754.156 6.751 3.271 6.767 7.029v.044c0 1.468-.45 2.831-1.22 3.958l.016-.024a.691.691 0 00-.061.071c-1.334 1.877-3.457 3.015-5.681 3.049-.331.005-.62.253-.641.584l-.001.041c0 .345.28.625.625.625h.007c2.451-.028 4.796-1.19 6.374-3.134a3.363 3.363 0 011.213 2.577 3.365 3.365 0 01-2.152 3.129l-.023.008a.627.627 0 00-.108 1.119l.003.002a4.722 4.722 0 012.281 4.039v.017-.001a4.752 4.752 0 01-4.843 4.745z"/><path d="M22.582 3.263h-.029a.625.625 0 00-.001 1.25h.025a.625.625 0 00.006-1.25h-.001zm2.684.744a.625.625 0 00-.643 1.073l.003.002a4.084 4.084 0 011.985 3.489v.001a.625.625 0 001.25 0 5.337 5.337 0 00-2.572-4.551l-.024-.013zM8.233 21.437a.625.625 0 100 .884.623.623 0 000-.884z"/></symbol><symbol id="clock" viewBox="0 0 32 32"><path d="M31.938 17.478a12.645 12.645 0 00-3.636-7.673 12.53 12.53 0 00-6.09-3.374l-.084-.016V4.826a2.135 2.135 0 001.613-2.062A2.127 2.127 0 0021.615.639h-4.5a2.127 2.127 0 00-2.126 2.126 2.13 2.13 0 001.598 2.059l.015.003V6.42a12.577 12.577 0 00-6.155 3.385c-.37.37-.718.763-1.04 1.176l-.021.028a.654.654 0 00-.047-.002H4.885a.625.625 0 000 1.25h3.651a12.263 12.263 0 00-1.083 2.314l-.027.088H.624a.625.625 0 00-.001 1.25h6.45c-.169.71-.281 1.535-.31 2.381l-.001.021H3.998a.625.625 0 000 1.25h2.784c.053.809.183 1.614.39 2.402H3.123a.625.625 0 00-.001 1.25H7.571a12.592 12.592 0 002.875 4.445 12.611 12.611 0 007.625 3.632l.054.005c.373.039.806.061 1.244.061 2.56 0 4.942-.76 6.933-2.066l-.048.03a.626.626 0 00-.685-1.046l.003-.002C21.1 31.185 15.11 30.555 11.33 26.775c-4.435-4.435-4.435-11.651 0-16.087s11.651-4.435 16.087 0c3.775 3.775 4.408 9.759 1.505 14.23a.625.625 0 101.047.682l.002-.003a12.546 12.546 0 002.027-6.873c0-.44-.022-.874-.066-1.303l.004.054zM16.241 2.766c0-.482.392-.874.874-.874h4.501a.876.876 0 010 1.749h-4.5a.876.876 0 01-.876-.875zm1.612 3.44V4.892h3.026v1.312a12.735 12.735 0 00-3.087.009l.062-.006z"/><path d="M27.861 26.594a.627.627 0 00-.625.625c.001.345.28.624.625.625a.627.627 0 00.625-.625.627.627 0 00-.625-.625zM19.375 9.038c-5.346 0-9.696 4.349-9.696 9.695s4.35 9.696 9.696 9.696 9.695-4.35 9.695-9.696-4.349-9.695-9.695-9.695zm0 18.141c-4.657 0-8.446-3.789-8.446-8.446s3.789-8.446 8.446-8.446 8.446 3.789 8.446 8.446-3.789 8.446-8.446 8.446z"/><path d="M23.329 13.897l-3.096 3.095c-.25-.127-.545-.201-.858-.201s-.608.074-.869.206l.011-.005-1.386-1.386a.624.624 0 00-1.061.448c0 .17.067.323.177.436l1.386 1.386a1.944 1.944 0 001.742 2.8 1.944 1.944 0 001.942-1.942c0-.307-.073-.599-.2-.858l3.095-3.095a.625.625 0 00-.883-.883zm-3.954 5.529a.691.691 0 11.001 0zm6.683-1.309h-.579a.625.625 0 00-.001 1.25h.579a.625.625 0 00.001-1.25h-.001zm-12.786-.016h-.579a.625.625 0 000 1.25h.579a.625.625 0 000-1.25zm6.111-4.846c.345 0 .625-.28.625-.625v-.579a.625.625 0 00-1.25 0v.579c0 .345.28.625.625.625zm-.015 10.958a.625.625 0 00-.625.625v.579a.625.625 0 001.25.001v-.58a.625.625 0 00-.625-.625zM.625 21.966c-.165 0-.326.067-.442.183S0 22.427 0 22.591c0 .165.067.326.183.442s.278.183.442.183c.164 0 .326-.067.442-.183s.183-.278.183-.442-.067-.326-.183-.442a.627.627 0 00-.442-.183z"/></symbol><symbol id="business-and-finance" viewBox="0 0 32 32"><path d="M5.317 28.433a.625.625 0 10-.884.884.625.625 0 00.884-.884zm24.028-16.999a.625.625 0 10.183.443.625.625 0 00-.183-.442z"/><path d="M31.817.183A.623.623 0 0031.375 0L16.001.001a.625.625 0 00-.625.625v1.787L9.453 4a.625.625 0 00-.442.766l3.07 11.458-2.656 2.657a1.872 1.872 0 00-1.547-.818h-6a1.878 1.878 0 00-1.876 1.874v10.189A1.877 1.877 0 001.876 32h6a1.879 1.879 0 001.817-1.411l.003-.013.743.648c.55.482 1.276.776 2.07.776h18.869c.345 0 .625-.28.625-.625V.625a.625.625 0 00-.183-.442zM8.5 30.126c0 .345-.28.625-.625.625h-6a.627.627 0 01-.625-.625V19.937c0-.345.28-.625.625-.625H4.25v7.2a.625.625 0 001.25.001V19.312h2.375c.345 0 .625.281.625.625v10.189zm1.878-25.08l4.997-1.339v2.315l-.419.113a.626.626 0 00-.44.77l-.001-.004a1.685 1.685 0 01-1.178 2.058l-.012.003a.626.626 0 00-.44.771l-.001-.004 2.437 9.021h-1.254l-.647-2.529a.617.617 0 00-.106-.22l.001.002L10.38 5.048zm4.997 3.843v5.274l-1.14-4.221a2.948 2.948 0 001.133-1.041l.007-.012zm8.979 21.861H12.508c-.459 0-.903-.166-1.249-.469L9.75 28.965v-8.644l2.729-2.729.495 1.936c.071.277.32.47.606.47l12.287.001a.876.876 0 01.001 1.749h-6.297a.625.625 0 000 1.25h8.253a.876.876 0 01.002 1.75h-8.255a.625.625 0 00-.001 1.25h6.916a.876.876 0 010 1.749h-6.914a.625.625 0 000 1.25h4.783a.876.876 0 010 1.749zm6.396 0h-4.46a2.109 2.109 0 00-.005-1.763l.005.013h.196a2.127 2.127 0 002.125-2.125 2.11 2.11 0 00-.226-.951 2.134 2.134 0 001.563-2.048c0-.474-.156-.913-.419-1.266v-7.921a.625.625 0 00-1.25 0v7.112a2.093 2.093 0 00-.455-.05h-.021a2.127 2.127 0 00-1.936-3h-1.004a3.001 3.001 0 001.815-2.75 2.995 2.995 0 00-2.991-2.991 2.994 2.994 0 00-2.991 2.991 2.996 2.996 0 001.797 2.743l.019.008h-3.417V6.868a2.952 2.952 0 002.237-2.221l.004-.02h4.701a2.953 2.953 0 002.221 2.237l.02.004v1.943a.625.625 0 001.25 0V6.31a.625.625 0 00-.625-.625 1.685 1.685 0 01-1.683-1.683.625.625 0 00-.625-.625h-5.817a.625.625 0 00-.625.625 1.685 1.685 0 01-1.683 1.683.625.625 0 00-.625.625v12.442h-1.221V1.253l14.125-.001v29.501zm-7.063-13.009A1.743 1.743 0 0121.946 16c.001-.961.78-1.74 1.741-1.741.961.001 1.74.78 1.741 1.741a1.743 1.743 0 01-1.741 1.741z"/></symbol></defs></svg>